<svg id="Layer_2" data-name="Layer 2" xmlns="http://www.w3.org/2000/svg" viewBox="0 0 502.08 97.79">
  <g id="Layer_9" data-name="Layer 9">
    <g>
      <path d="m0,48.89C0,21.22,20.55,0,48.89,0c17.06,0,32.1,8.46,40.3,21.76l-18.54,10.75c-4.16-7.25-12.22-11.55-21.76-11.55-16.66,0-27.4,11.15-27.4,27.94s10.75,27.94,27.4,27.94c9.54,0,17.73-4.3,21.76-11.55l18.54,10.75c-8.06,13.3-23.1,21.76-40.3,21.76C20.55,97.79,0,76.56,0,48.89Z" fill="#042532"/>
      <path d="m191,51.58c0,28.74-20.01,46.21-46.34,46.21-29.55,0-50.77-21.76-50.77-48.76S115.52,0,143.19,0c18,0,33.18,8.87,41.1,21.49l-18.27,10.48c-3.9-6.18-12.36-11.01-22.97-11.01-15.85,0-27.67,11.69-27.67,28.21s11.28,27.67,29.55,27.67c12.49,0,20.69-5.51,24.04-14.51h-25.12v-18.81h47.15v8.06Z" fill="#042532"/>
      <path d="m296.84,48.89c0,15.62-6.98,29.2-17.92,38.05l-11.98-17.35c5.2-4.9,8.41-12.06,8.41-20.7,0-16.79-12.09-27.94-27.4-27.94-4.57,0-8.86,1-12.62,2.84l-11.96-17.33C230.6,2.34,238.99,0,247.95,0c27,0,48.89,21.22,48.89,48.89Z" fill="#042532"/>
      <path d="m272.54,91.31c-7.22,4.14-15.62,6.48-24.58,6.48-27,0-48.89-21.22-48.89-48.89,0-15.62,6.98-29.2,17.92-38.05l11.98,17.35c-5.2,4.9-8.41,12.06-8.41,20.7,0,16.79,12.09,27.94,27.4,27.94,4.57,0,8.86-1,12.63-2.84l11.96,17.32Z" fill="#042532"/>
      <path d="m298.19,1.88h22.57l16.25,65.82L355.14,1.88h17.46l18.13,65.82L406.99,1.88h22.57l-25.92,94.02h-24.45l-15.31-55.47-15.31,55.47h-24.45L298.19,1.88Z" fill="#042532"/>
      <path d="m502.08,22.57h-24.18v73.34h-21.49V22.57h-24.18V1.88h69.85v20.69Z" fill="#042532"/>
    </g>
  </g>
</svg>